<?xml version="1.0" standalone="no"?>
<!DOCTYPE svg PUBLIC "-//W3C//DTD SVG 1.1//EN" "http://www.w3.org/Graphics/SVG/1.1/DTD/svg11.dtd">
<svg version="1.1" width="1200" height="630" onload="init(evt)" viewBox="0 0 1200 630" xmlns="http://www.w3.org/2000/svg" xmlns:xlink="http://www.w3.org/1999/xlink">
<style type="text/css">
	text { font-family:Verdana; font-size:12px; fill:rgb(0,0,0); }
	#search { opacity:0.1; cursor:pointer; }
	#search:hover, #search.show { opacity:1; }
	#subtitle { text-anchor:middle; font-color:rgb(160,160,160); }
	#title { text-anchor:middle; font-size:17px}
	#unzoom { cursor:pointer; }
	#frames > *:hover { stroke:black; stroke-width:0.5; cursor:pointer; }
	.hide { display:none; }
	.parent { opacity:0.5; }
</style>
<script type="text/ecmascript">
<![CDATA[
	"use strict";
	var details, searchbtn, unzoombtn, matchedtxt, svg, searching;
	function init(evt) {
		details = document.getElementById("details").firstChild;
		searchbtn = document.getElementById("search");
		unzoombtn = document.getElementById("unzoom");
		matchedtxt = document.getElementById("matched");
		svg = document.getElementsByTagName("svg")[0];
		searching = 0;
	}

	window.addEventListener("click", function(e) {
		var target = find_group(e.target);
		if (target) {
			if (target.nodeName == "a") {
				if (e.ctrlKey === false) return;
				e.preventDefault();
			}
			if (target.classList.contains("parent")) unzoom();
			zoom(target);
		}
		else if (e.target.id == "unzoom") unzoom();
		else if (e.target.id == "search") search_prompt();
	}, false)

	// mouse-over for info
	// show
	window.addEventListener("mouseover", function(e) {
		var target = find_group(e.target);
		if (target) details.nodeValue = "Function: " + g_to_text(target);
	}, false)

	// clear
	window.addEventListener("mouseout", function(e) {
		var target = find_group(e.target);
		if (target) details.nodeValue = ' ';
	}, false)

	// ctrl-F for search
	window.addEventListener("keydown",function (e) {
		if (e.keyCode === 114 || (e.ctrlKey && e.keyCode === 70)) {
			e.preventDefault();
			search_prompt();
		}
	}, false)

	// functions
	function find_child(node, selector) {
		var children = node.querySelectorAll(selector);
		if (children.length) return children[0];
		return;
	}
	function find_group(node) {
		var parent = node.parentElement;
		if (!parent) return;
		if (parent.id == "frames") return node;
		return find_group(parent);
	}
	function orig_save(e, attr, val) {
		if (e.attributes["_orig_" + attr] != undefined) return;
		if (e.attributes[attr] == undefined) return;
		if (val == undefined) val = e.attributes[attr].value;
		e.setAttribute("_orig_" + attr, val);
	}
	function orig_load(e, attr) {
		if (e.attributes["_orig_"+attr] == undefined) return;
		e.attributes[attr].value = e.attributes["_orig_" + attr].value;
		e.removeAttribute("_orig_"+attr);
	}
	function g_to_text(e) {
		var text = find_child(e, "title").firstChild.nodeValue;
		return (text)
	}
	function g_to_func(e) {
		var func = g_to_text(e);
		// if there's any manipulation we want to do to the function
		// name before it's searched, do it here before returning.
		return (func);
	}
	function update_text(e) {
		var r = find_child(e, "rect");
		var t = find_child(e, "text");
		var w = parseFloat(r.attributes.width.value) -3;
		var txt = find_child(e, "title").textContent.replace(/\([^(]*\)$/,"");
		t.attributes.x.value = parseFloat(r.attributes.x.value) + 3;

		// Smaller than this size won't fit anything
		if (w < 2 * 12 * 0.59) {
			t.textContent = "";
			return;
		}

		t.textContent = txt;
		// Fit in full text width
		if (/^ *$/.test(txt) || t.getSubStringLength(0, txt.length) < w)
			return;

		for (var x = txt.length - 2; x > 0; x--) {
			if (t.getSubStringLength(0, x + 2) <= w) {
				t.textContent = txt.substring(0, x) + "..";
				return;
			}
		}
		t.textContent = "";
	}

	// zoom
	function zoom_reset(e) {
		if (e.attributes != undefined) {
			orig_load(e, "x");
			orig_load(e, "width");
		}
		if (e.childNodes == undefined) return;
		for (var i = 0, c = e.childNodes; i < c.length; i++) {
			zoom_reset(c[i]);
		}
	}
	function zoom_child(e, x, ratio) {
		if (e.attributes != undefined) {
			if (e.attributes.x != undefined) {
				orig_save(e, "x");
				e.attributes.x.value = (parseFloat(e.attributes.x.value) - x - 10) * ratio + 10;
				if (e.tagName == "text")
					e.attributes.x.value = find_child(e.parentNode, "rect[x]").attributes.x.value + 3;
			}
			if (e.attributes.width != undefined) {
				orig_save(e, "width");
				e.attributes.width.value = parseFloat(e.attributes.width.value) * ratio;
			}
		}

		if (e.childNodes == undefined) return;
		for (var i = 0, c = e.childNodes; i < c.length; i++) {
			zoom_child(c[i], x - 10, ratio);
		}
	}
	function zoom_parent(e) {
		if (e.attributes) {
			if (e.attributes.x != undefined) {
				orig_save(e, "x");
				e.attributes.x.value = 10;
			}
			if (e.attributes.width != undefined) {
				orig_save(e, "width");
				e.attributes.width.value = parseInt(svg.width.baseVal.value) - (10 * 2);
			}
		}
		if (e.childNodes == undefined) return;
		for (var i = 0, c = e.childNodes; i < c.length; i++) {
			zoom_parent(c[i]);
		}
	}
	function zoom(node) {
		var attr = find_child(node, "rect").attributes;
		var width = parseFloat(attr.width.value);
		var xmin = parseFloat(attr.x.value);
		var xmax = parseFloat(xmin + width);
		var ymin = parseFloat(attr.y.value);
		var ratio = (svg.width.baseVal.value - 2 * 10) / width;

		// XXX: Workaround for JavaScript float issues (fix me)
		var fudge = 0.0001;

		unzoombtn.classList.remove("hide");

		var el = document.getElementById("frames").children;
		for (var i = 0; i < el.length; i++) {
			var e = el[i];
			var a = find_child(e, "rect").attributes;
			var ex = parseFloat(a.x.value);
			var ew = parseFloat(a.width.value);
			var upstack;
			// Is it an ancestor
			if (0 == 0) {
				upstack = parseFloat(a.y.value) > ymin;
			} else {
				upstack = parseFloat(a.y.value) < ymin;
			}
			if (upstack) {
				// Direct ancestor
				if (ex <= xmin && (ex+ew+fudge) >= xmax) {
					e.classList.add("parent");
					zoom_parent(e);
					update_text(e);
				}
				// not in current path
				else
					e.classList.add("hide");
			}
			// Children maybe
			else {
				// no common path
				if (ex < xmin || ex + fudge >= xmax) {
					e.classList.add("hide");
				}
				else {
					zoom_child(e, xmin, ratio);
					update_text(e);
				}
			}
		}
	}
	function unzoom() {
		unzoombtn.classList.add("hide");
		var el = document.getElementById("frames").children;
		for(var i = 0; i < el.length; i++) {
			el[i].classList.remove("parent");
			el[i].classList.remove("hide");
			zoom_reset(el[i]);
			update_text(el[i]);
		}
	}

	// search
	function reset_search() {
		var el = document.querySelectorAll("#frames rect");
		for (var i = 0; i < el.length; i++) {
			orig_load(el[i], "fill")
		}
	}
	function search_prompt() {
		if (!searching) {
			var term = prompt("Enter a search term (regexp " +
			    "allowed, eg: ^ext4_)", "");
			if (term != null) {
				search(term)
			}
		} else {
			reset_search();
			searching = 0;
			searchbtn.classList.remove("show");
			searchbtn.firstChild.nodeValue = "Search"
			matchedtxt.classList.add("hide");
			matchedtxt.firstChild.nodeValue = ""
		}
	}
	function search(term) {
		var re = new RegExp(term);
		var el = document.getElementById("frames").children;
		var matches = new Object();
		var maxwidth = 0;
		for (var i = 0; i < el.length; i++) {
			var e = el[i];
			var func = g_to_func(e);
			var rect = find_child(e, "rect");
			if (func == null || rect == null)
				continue;

			// Save max width. Only works as we have a root frame
			var w = parseFloat(rect.attributes.width.value);
			if (w > maxwidth)
				maxwidth = w;

			if (func.match(re)) {
				// highlight
				var x = parseFloat(rect.attributes.x.value);
				orig_save(rect, "fill");
				rect.attributes.fill.value = "rgb(230,0,230)";

				// remember matches
				if (matches[x] == undefined) {
					matches[x] = w;
				} else {
					if (w > matches[x]) {
						// overwrite with parent
						matches[x] = w;
					}
				}
				searching = 1;
			}
		}
		if (!searching)
			return;

		searchbtn.classList.add("show");
		searchbtn.firstChild.nodeValue = "Reset Search";

		// calculate percent matched, excluding vertical overlap
		var count = 0;
		var lastx = -1;
		var lastw = 0;
		var keys = Array();
		for (k in matches) {
			if (matches.hasOwnProperty(k))
				keys.push(k);
		}
		// sort the matched frames by their x location
		// ascending, then width descending
		keys.sort(function(a, b){
			return a - b;
		});
		// Step through frames saving only the biggest bottom-up frames
		// thanks to the sort order. This relies on the tree property
		// where children are always smaller than their parents.
		var fudge = 0.0001;	// JavaScript floating point
		for (var k in keys) {
			var x = parseFloat(keys[k]);
			var w = matches[keys[k]];
			if (x >= lastx + lastw - fudge) {
				count += w;
				lastx = x;
				lastw = w;
			}
		}
		// display matched percent
		matchedtxt.classList.remove("hide");
		var pct = 100 * count / maxwidth;
		if (pct != 100) pct = pct.toFixed(1)
		matchedtxt.firstChild.nodeValue = "Matched: " + pct + "%";
	}
]]>
</script>
<rect x="0" y="0" width="100%" height="100%" fill="rgb(240,240,220)"/>
<text id="title" x="600" y="24">Flame Graph</text>
<text id="details" x="10" y="613"> </text>
<text id="unzoom" x="10" y="24" class="hide">Reset Zoom</text>
<text id="search" x="1090" y="24">Search</text>
<text id="matched" x="1090" y="613"> </text>
<g id="frames">
<g>
<title>all (191,379 samples, 100.00%)</title><rect x="10.0" y="579.0" width="1180.0" height="15" fill="#f87979" rx="2" ry="2"/>
<text x="13.0" y="590.0">all</text>
</g>
<g>
<title>java/lang/Thread.run (160,939 samples, 84.09%)</title><rect x="10.0" y="563.0" width="992.3" height="15" fill="#5dee5d" rx="2" ry="2"/>
<text x="13.0" y="574.0">java/lang/Thread.run</text>
</g>
<g>
<title>java/util/concurrent/ThreadPoolExecutor$Worker.run (160,939 samples, 84.09%)</title><rect x="10.0" y="547.0" width="992.3" height="15" fill="#5aeb5a" rx="2" ry="2"/>
<text x="13.0" y="558.0">java/util/concurrent/ThreadPoolExecutor$Worker.run</text>
</g>
<g>
<title>java/util/concurrent/ThreadPoolExecutor.runWorker (160,939 samples, 84.09%)</title><rect x="10.0" y="531.0" width="992.3" height="15" fill="#5dee5d" rx="2" ry="2"/>
<text x="13.0" y="542.0">java/util/concurrent/ThreadPoolExecutor.runWorker</text>
</g>
<g>
<title>java/util/concurrent/CompletableFuture$AsyncSupply.run (67,729 samples, 35.39%)</title><rect x="10.0" y="515.0" width="417.6" height="15" fill="#68f968" rx="2" ry="2"/>
<text x="13.0" y="526.0">java/util/concurrent/CompletableFuture$AsyncSupply.run</text>
</g>
<g>
<title>java/util/concurrent/CompletableFuture.postComplete (67,729 samples, 35.39%)</title><rect x="10.0" y="499.0" width="417.6" height="15" fill="#6bfc6b" rx="2" ry="2"/>
<text x="13.0" y="510.0">java/util/concurrent/CompletableFuture.postComplete</text>
</g>
<g>
<title>java/util/concurrent/CompletableFuture$UniCompose.tryFire (67,729 samples, 35.39%)</title><rect x="10.0" y="483.0" width="417.6" height="15" fill="#63f463" rx="2" ry="2"/>
<text x="13.0" y="494.0">java/util/concurrent/CompletableFuture$UniCompose.tryFire</text>
</g>
<g>
<title>jdk/internal/net/http/MultiExchange$$Lambda$135/445661136.apply (67,729 samples, 35.39%)</title><rect x="10.0" y="467.0" width="417.6" height="15" fill="#56e756" rx="2" ry="2"/>
<text x="13.0" y="478.0">jdk/internal/net/http/MultiExchange$$Lambda$135/445661136..</text>
</g>
<g>
<title>jdk/internal/net/http/MultiExchange.lambda$responseAsync0$1 (67,729 samples, 35.39%)</title><rect x="10.0" y="451.0" width="417.6" height="15" fill="#64f564" rx="2" ry="2"/>
<text x="13.0" y="462.0">jdk/internal/net/http/MultiExchange.lambda$responseAsync0$1</text>
</g>
<g>
<title>jdk/internal/net/http/MultiExchange.responseAsyncImpl (67,729 samples, 35.39%)</title><rect x="10.0" y="435.0" width="417.6" height="15" fill="#6bfc6b" rx="2" ry="2"/>
<text x="13.0" y="446.0">jdk/internal/net/http/MultiExchange.responseAsyncImpl</text>
</g>
<g>
<title>jdk/internal/net/http/Exchange.responseAsync (41,995 samples, 21.94%)</title><rect x="10.0" y="419.0" width="258.9" height="15" fill="#57e857" rx="2" ry="2"/>
<text x="13.0" y="430.0">jdk/internal/net/http/Exchange.res..</text>
</g>
<g>
<title>jdk/internal/net/http/Exchange.responseAsyncImpl (41,995 samples, 21.94%)</title><rect x="10.0" y="403.0" width="258.9" height="15" fill="#69fa69" rx="2" ry="2"/>
<text x="13.0" y="414.0">jdk/internal/net/http/Exchange.res..</text>
</g>
<g>
<title>jdk/internal/net/http/Exchange.responseAsyncImpl0 (41,995 samples, 21.94%)</title><rect x="10.0" y="387.0" width="258.9" height="15" fill="#5eef5e" rx="2" ry="2"/>
<text x="13.0" y="398.0">jdk/internal/net/http/Exchange.res..</text>
</g>
<g>
<title>java/util/concurrent/CompletableFuture.handle (27,898 samples, 14.58%)</title><rect x="10.0" y="371.0" width="172.0" height="15" fill="#5ff05f" rx="2" ry="2"/>
<text x="13.0" y="382.0">java/util/concurrent/C..</text>
</g>
<g>
<title>java/util/concurrent/CompletableFuture.uniHandleStage (27,898 samples, 14.58%)</title><rect x="10.0" y="355.0" width="172.0" height="15" fill="#62f362" rx="2" ry="2"/>
<text x="13.0" y="366.0">java/util/concurrent/C..</text>
</g>
<g>
<title>java/util/concurrent/CompletableFuture.uniHandle (27,898 samples, 14.58%)</title><rect x="10.0" y="339.0" width="172.0" height="15" fill="#68f968" rx="2" ry="2"/>
<text x="13.0" y="350.0">java/util/concurrent/C..</text>
</g>
<g>
<title>jdk/internal/net/http/Exchange$$Lambda$277/2124947571.apply (27,898 samples, 14.58%)</title><rect x="10.0" y="323.0" width="172.0" height="15" fill="#66f766" rx="2" ry="2"/>
<text x="13.0" y="334.0">jdk/internal/net/http/..</text>
</g>
<g>
<title>jdk/internal/net/http/Exchange.lambda$responseAsyncImpl0$9 (27,898 samples, 14.58%)</title><rect x="10.0" y="307.0" width="172.0" height="15" fill="#5dee5d" rx="2" ry="2"/>
<text x="13.0" y="318.0">jdk/internal/net/http/..</text>
</g>
<g>
<title>jdk/internal/net/http/Exchange.checkFor407 (27,898 samples, 14.58%)</title><rect x="10.0" y="291.0" width="172.0" height="15" fill="#6cfd6c" rx="2" ry="2"/>
<text x="13.0" y="302.0">jdk/internal/net/http/..</text>
</g>
<g>
<title>jdk/internal/net/http/Exchange$$Lambda$155/387212201.apply (27,898 samples, 14.58%)</title><rect x="10.0" y="275.0" width="172.0" height="15" fill="#62f362" rx="2" ry="2"/>
<text x="13.0" y="286.0">jdk/internal/net/http/..</text>
</g>
<g>
<title>jdk/internal/net/http/Exchange.lambda$responseAsyncImpl0$8 (27,898 samples, 14.58%)</title><rect x="10.0" y="259.0" width="172.0" height="15" fill="#5dee5d" rx="2" ry="2"/>
<text x="13.0" y="270.0">jdk/internal/net/http/..</text>
</g>
<g>
<title>jdk/internal/net/http/Http1Exchange.sendHeadersAsync (27,898 samples, 14.58%)</title><rect x="10.0" y="243.0" width="172.0" height="15" fill="#68f968" rx="2" ry="2"/>
<text x="13.0" y="254.0">jdk/internal/net/http/..</text>
</g>
<g>
<title>java/util/concurrent/CompletableFuture.thenCompose (27,898 samples, 14.58%)</title><rect x="10.0" y="227.0" width="172.0" height="15" fill="#64f564" rx="2" ry="2"/>
<text x="13.0" y="238.0">java/util/concurrent/C..</text>
</g>
<g>
<title>java/util/concurrent/CompletableFuture.uniComposeStage (27,898 samples, 14.58%)</title><rect x="10.0" y="211.0" width="172.0" height="15" fill="#65f665" rx="2" ry="2"/>
<text x="13.0" y="222.0">java/util/concurrent/C..</text>
</g>
<g>
<title>jdk/internal/net/http/Http1Exchange$$Lambda$314/1281745626.apply (27,898 samples, 14.58%)</title><rect x="10.0" y="195.0" width="172.0" height="15" fill="#6dfe6d" rx="2" ry="2"/>
<text x="13.0" y="206.0">jdk/internal/net/http/..</text>
</g>
<g>
<title>jdk/internal/net/http/Http1Exchange.lambda$sendHeadersAsync$4 (27,898 samples, 14.58%)</title><rect x="10.0" y="179.0" width="172.0" height="15" fill="#6cfd6c" rx="2" ry="2"/>
<text x="13.0" y="190.0">jdk/internal/net/http/..</text>
</g>
<g>
<title>jdk/internal/net/http/Http1Exchange.connectFlows (27,898 samples, 14.58%)</title><rect x="10.0" y="163.0" width="172.0" height="15" fill="#69fa69" rx="2" ry="2"/>
<text x="13.0" y="174.0">jdk/internal/net/http/..</text>
</g>
<g>
<title>jdk/internal/net/http/SocketTube.connectFlows (27,898 samples, 14.58%)</title><rect x="10.0" y="147.0" width="172.0" height="15" fill="#58e958" rx="2" ry="2"/>
<text x="13.0" y="158.0">jdk/internal/net/http/..</text>
</g>
<g>
<title>jdk/internal/net/http/Http1Exchange$Http1Publisher.subscribe (4,587 samples, 2.40%)</title><rect x="10.0" y="131.0" width="28.3" height="15" fill="#60f160" rx="2" ry="2"/>
<text x="13.0" y="142.0">jd..</text>
</g>
<g>
<title>jdk/internal/net/http/SocketTube.onSubscribe (4,587 samples, 2.40%)</title><rect x="10.0" y="115.0" width="28.3" height="15" fill="#5ff05f" rx="2" ry="2"/>
<text x="13.0" y="126.0">jd..</text>
</g>
<g>
<title>jdk/internal/net/http/SocketTube$InternalWriteSubscriber.onSubscribe (4,587 samples, 2.40%)</title><rect x="10.0" y="99.0" width="28.3" height="15" fill="#53e453" rx="2" ry="2"/>
<text x="13.0" y="110.0">jd..</text>
</g>
<g>
<title>jdk/internal/net/http/HttpClientImpl.registerEvent (4,587 samples, 2.40%)</title><rect x="10.0" y="83.0" width="28.3" height="15" fill="#5ced5c" rx="2" ry="2"/>
<text x="13.0" y="94.0">jd..</text>
</g>
<g>
<title>jdk/internal/net/http/HttpClientImpl$SelectorManager.register (4,587 samples, 2.40%)</title><rect x="10.0" y="67.0" width="28.3" height="15" fill="#61f261" rx="2" ry="2"/>
<text x="13.0" y="78.0">jd..</text>
</g>
<g>
<title>jdk.internal.net.http.HttpClientImpl$SelectorManager (3,884 samples, 2.03%)</title><rect x="10.0" y="51.0" width="23.9" height="15" fill="#6ad8d8" rx="2" ry="2"/>
<text x="13.0" y="62.0">j..</text>
</g>
<g>
<title>sun/nio/ch/KQueueSelectorImpl.wakeup (703 samples, 0.37%)</title><rect x="33.9" y="51.0" width="4.4" height="15" fill="#5dee5d" rx="2" ry="2"/>
<text x="36.9" y="62.0"></text>
</g>
<g>
<title>java.lang.Object (703 samples, 0.37%)</title><rect x="33.9" y="35.0" width="4.4" height="15" fill="#65d3d3" rx="2" ry="2"/>
<text x="36.9" y="46.0"></text>
</g>
<g>
<title>jdk/internal/net/http/SocketTube.subscribe (23,311 samples, 12.18%)</title><rect x="38.3" y="131.0" width="143.7" height="15" fill="#6afb6a" rx="2" ry="2"/>
<text x="41.3" y="142.0">jdk/internal/net/h..</text>
</g>
<g>
<title>jdk/internal/net/http/SocketTube$InternalReadPublisher.subscribe (23,311 samples, 12.18%)</title><rect x="38.3" y="115.0" width="143.7" height="15" fill="#65f665" rx="2" ry="2"/>
<text x="41.3" y="126.0">jdk/internal/net/h..</text>
</g>
<g>
<title>jdk/internal/net/http/SocketTube$InternalReadPublisher$InternalReadSubscription.signalSubscribe (23,311 samples, 12.18%)</title><rect x="38.3" y="99.0" width="143.7" height="15" fill="#68f968" rx="2" ry="2"/>
<text x="41.3" y="110.0">jdk/internal/net/h..</text>
</g>
<g>
<title>jdk/internal/net/http/HttpClientImpl.registerEvent (23,311 samples, 12.18%)</title><rect x="38.3" y="83.0" width="143.7" height="15" fill="#65f665" rx="2" ry="2"/>
<text x="41.3" y="94.0">jdk/internal/net/h..</text>
</g>
<g>
<title>jdk/internal/net/http/HttpClientImpl$SelectorManager.register (23,311 samples, 12.18%)</title><rect x="38.3" y="67.0" width="143.7" height="15" fill="#66f766" rx="2" ry="2"/>
<text x="41.3" y="78.0">jdk/internal/net/h..</text>
</g>
<g>
<title>jdk.internal.net.http.HttpClientImpl$SelectorManager (20,454 samples, 10.69%)</title><rect x="38.3" y="51.0" width="126.1" height="15" fill="#50bebe" rx="2" ry="2"/>
<text x="41.3" y="62.0">jdk.internal.net..</text>
</g>
<g>
<title>sun/nio/ch/KQueueSelectorImpl.wakeup (2,857 samples, 1.49%)</title><rect x="164.4" y="51.0" width="17.6" height="15" fill="#6afb6a" rx="2" ry="2"/>
<text x="167.4" y="62.0"></text>
</g>
<g>
<title>java.lang.Object (2,857 samples, 1.49%)</title><rect x="164.4" y="35.0" width="17.6" height="15" fill="#5fcdcd" rx="2" ry="2"/>
<text x="167.4" y="46.0"></text>
</g>
<g>
<title>jdk/internal/net/http/Exchange.establishExchange (14,097 samples, 7.37%)</title><rect x="182.0" y="371.0" width="86.9" height="15" fill="#5dee5d" rx="2" ry="2"/>
<text x="185.0" y="382.0">jdk/intern..</text>
</g>
<g>
<title>jdk/internal/net/http/ExchangeImpl.get (14,097 samples, 7.37%)</title><rect x="182.0" y="355.0" width="86.9" height="15" fill="#51e251" rx="2" ry="2"/>
<text x="185.0" y="366.0">jdk/intern..</text>
</g>
<g>
<title>java/util/concurrent/CompletableFuture.handle (13,534 samples, 7.07%)</title><rect x="182.0" y="339.0" width="83.5" height="15" fill="#65f665" rx="2" ry="2"/>
<text x="185.0" y="350.0">java/util..</text>
</g>
<g>
<title>java/util/concurrent/CompletableFuture.uniHandleStage (13,534 samples, 7.07%)</title><rect x="182.0" y="323.0" width="83.5" height="15" fill="#5eef5e" rx="2" ry="2"/>
<text x="185.0" y="334.0">java/util..</text>
</g>
<g>
<title>java/util/concurrent/CompletableFuture.uniHandle (13,534 samples, 7.07%)</title><rect x="182.0" y="307.0" width="83.5" height="15" fill="#64f564" rx="2" ry="2"/>
<text x="185.0" y="318.0">java/util..</text>
</g>
<g>
<title>jdk/internal/net/http/ExchangeImpl$$Lambda$167/76050952.apply (13,534 samples, 7.07%)</title><rect x="182.0" y="291.0" width="83.5" height="15" fill="#64f564" rx="2" ry="2"/>
<text x="185.0" y="302.0">jdk/inter..</text>
</g>
<g>
<title>jdk/internal/net/http/ExchangeImpl.lambda$get$0 (13,534 samples, 7.07%)</title><rect x="182.0" y="275.0" width="83.5" height="15" fill="#55e655" rx="2" ry="2"/>
<text x="185.0" y="286.0">jdk/inter..</text>
</g>
<g>
<title>jdk/internal/net/http/ExchangeImpl.createExchangeImpl (13,534 samples, 7.07%)</title><rect x="182.0" y="259.0" width="83.5" height="15" fill="#6bfc6b" rx="2" ry="2"/>
<text x="185.0" y="270.0">jdk/inter..</text>
</g>
<g>
<title>jdk/internal/net/http/ExchangeImpl.createHttp1Exchange (13,534 samples, 7.07%)</title><rect x="182.0" y="243.0" width="83.5" height="15" fill="#69fa69" rx="2" ry="2"/>
<text x="185.0" y="254.0">jdk/inter..</text>
</g>
<g>
<title>jdk/internal/net/http/Http1Exchange.&lt;init&gt; (13,534 samples, 7.07%)</title><rect x="182.0" y="227.0" width="83.5" height="15" fill="#6afb6a" rx="2" ry="2"/>
<text x="185.0" y="238.0">jdk/inter..</text>
</g>
<g>
<title>jdk/internal/net/http/HttpConnection.getConnection (13,528 samples, 7.07%)</title><rect x="182.0" y="211.0" width="83.4" height="15" fill="#60f160" rx="2" ry="2"/>
<text x="185.0" y="222.0">jdk/inter..</text>
</g>
<g>
<title>jdk/internal/net/http/ConnectionPool.getConnection (13,528 samples, 7.07%)</title><rect x="182.0" y="195.0" width="83.4" height="15" fill="#54e554" rx="2" ry="2"/>
<text x="185.0" y="206.0">jdk/inter..</text>
</g>
<g>
<title>jdk.internal.net.http.ConnectionPool (13,528 samples, 7.07%)</title><rect x="182.0" y="179.0" width="83.4" height="15" fill="#5dcbcb" rx="2" ry="2"/>
<text x="185.0" y="190.0">jdk.inter..</text>
</g>
<g>
<title>jdk/internal/net/http/Http2ClientImpl.getConnectionFor (563 samples, 0.29%)</title><rect x="265.5" y="339.0" width="3.4" height="15" fill="#6dfe6d" rx="2" ry="2"/>
<text x="268.5" y="350.0"></text>
</g>
<g>
<title>jdk.internal.net.http.Http2ClientImpl (563 samples, 0.29%)</title><rect x="265.5" y="323.0" width="3.4" height="15" fill="#56c4c4" rx="2" ry="2"/>
<text x="268.5" y="334.0"></text>
</g>
<g>
<title>jdk/internal/net/http/HttpClientImpl.registerTimer (23,520 samples, 12.29%)</title><rect x="268.9" y="419.0" width="145.1" height="15" fill="#5dee5d" rx="2" ry="2"/>
<text x="271.9" y="430.0">jdk/internal/net/h..</text>
</g>
<g>
<title>jdk.internal.net.http.HttpClientImpl (20,154 samples, 10.53%)</title><rect x="268.9" y="403.0" width="124.3" height="15" fill="#59c7c7" rx="2" ry="2"/>
<text x="271.9" y="414.0">jdk.internal.ne..</text>
</g>
<g>
<title>jdk/internal/net/http/HttpClientImpl$SelectorManager.wakeupSelector (3,366 samples, 1.76%)</title><rect x="393.2" y="403.0" width="20.8" height="15" fill="#5ff05f" rx="2" ry="2"/>
<text x="396.2" y="414.0"></text>
</g>
<g>
<title>sun/nio/ch/KQueueSelectorImpl.wakeup (3,366 samples, 1.76%)</title><rect x="393.2" y="387.0" width="20.8" height="15" fill="#6afb6a" rx="2" ry="2"/>
<text x="396.2" y="398.0"></text>
</g>
<g>
<title>java.lang.Object (3,366 samples, 1.76%)</title><rect x="393.2" y="371.0" width="20.8" height="15" fill="#5dcbcb" rx="2" ry="2"/>
<text x="396.2" y="382.0"></text>
</g>
<g>
<title>jdk/internal/net/http/MultiExchange.requestFilters (2,214 samples, 1.16%)</title><rect x="414.0" y="419.0" width="13.6" height="15" fill="#5eef5e" rx="2" ry="2"/>
<text x="417.0" y="430.0"></text>
</g>
<g>
<title>jdk/internal/net/http/AuthenticationFilter.request (2,214 samples, 1.16%)</title><rect x="414.0" y="403.0" width="13.6" height="15" fill="#68f968" rx="2" ry="2"/>
<text x="417.0" y="414.0"></text>
</g>
<g>
<title>jdk/internal/net/http/AuthenticationFilter$Cache.get (71 samples, 0.04%)</title><rect x="414.0" y="387.0" width="0.4" height="15" fill="#5aeb5a" rx="2" ry="2"/>
<text x="417.0" y="398.0"></text>
</g>
<g>
<title>jdk.internal.net.http.AuthenticationFilter$Cache (71 samples, 0.04%)</title><rect x="414.0" y="371.0" width="0.4" height="15" fill="#56c4c4" rx="2" ry="2"/>
<text x="417.0" y="382.0"></text>
</g>
<g>
<title>jdk/internal/net/http/AuthenticationFilter.getCache (2,143 samples, 1.12%)</title><rect x="414.4" y="387.0" width="13.2" height="15" fill="#6dfe6d" rx="2" ry="2"/>
<text x="417.4" y="398.0"></text>
</g>
<g>
<title>java.lang.Class (2,143 samples, 1.12%)</title><rect x="414.4" y="371.0" width="13.2" height="15" fill="#54c2c2" rx="2" ry="2"/>
<text x="417.4" y="382.0"></text>
</g>
<g>
<title>jdk/internal/net/http/common/SequentialScheduler$SchedulableTask.run (89,365 samples, 46.70%)</title><rect x="427.6" y="515.0" width="551.0" height="15" fill="#62f362" rx="2" ry="2"/>
<text x="430.6" y="526.0">jdk/internal/net/http/common/SequentialScheduler$SchedulableTask.run</text>
</g>
<g>
<title>jdk/internal/net/http/common/SequentialScheduler$CompleteRestartableTask.run (89,365 samples, 46.70%)</title><rect x="427.6" y="499.0" width="551.0" height="15" fill="#62f362" rx="2" ry="2"/>
<text x="430.6" y="510.0">jdk/internal/net/http/common/SequentialScheduler$CompleteRestartableTask.run</text>
</g>
<g>
<title>jdk/internal/net/http/common/SequentialScheduler$SynchronizedRestartableTask.run (23,951 samples, 12.51%)</title><rect x="427.6" y="483.0" width="147.7" height="15" fill="#50e150" rx="2" ry="2"/>
<text x="430.6" y="494.0">jdk/internal/net/ht..</text>
</g>
<g>
<title>jdk/internal/net/http/Http1AsyncReceiver$$Lambda$258/1895794914.run (23,951 samples, 12.51%)</title><rect x="427.6" y="467.0" width="147.7" height="15" fill="#50e150" rx="2" ry="2"/>
<text x="430.6" y="478.0">jdk/internal/net/ht..</text>
</g>
<g>
<title>jdk/internal/net/http/Http1AsyncReceiver.flush (23,951 samples, 12.51%)</title><rect x="427.6" y="451.0" width="147.7" height="15" fill="#67f867" rx="2" ry="2"/>
<text x="430.6" y="462.0">jdk/internal/net/ht..</text>
</g>
<g>
<title>jdk/internal/net/http/Http1AsyncReceiver.checkRequestMore (20,076 samples, 10.49%)</title><rect x="427.6" y="435.0" width="123.8" height="15" fill="#65f665" rx="2" ry="2"/>
<text x="430.6" y="446.0">jdk/internal/ne..</text>
</g>
<g>
<title>jdk/internal/net/http/Http1AsyncReceiver$Http1TubeSubscriber.requestMore (20,076 samples, 10.49%)</title><rect x="427.6" y="419.0" width="123.8" height="15" fill="#59ea59" rx="2" ry="2"/>
<text x="430.6" y="430.0">jdk/internal/ne..</text>
</g>
<g>
<title>jdk/internal/net/http/SocketTube$InternalReadPublisher$ReadSubscription.request (20,076 samples, 10.49%)</title><rect x="427.6" y="403.0" width="123.8" height="15" fill="#5ced5c" rx="2" ry="2"/>
<text x="430.6" y="414.0">jdk/internal/ne..</text>
</g>
<g>
<title>jdk/internal/net/http/SocketTube$InternalReadPublisher$InternalReadSubscription.request (20,076 samples, 10.49%)</title><rect x="427.6" y="387.0" width="123.8" height="15" fill="#64f564" rx="2" ry="2"/>
<text x="430.6" y="398.0">jdk/internal/ne..</text>
</g>
<g>
<title>jdk/internal/net/http/SocketTube$InternalReadPublisher$InternalReadSubscription.resumeReadEvent (20,076 samples, 10.49%)</title><rect x="427.6" y="371.0" width="123.8" height="15" fill="#64f564" rx="2" ry="2"/>
<text x="430.6" y="382.0">jdk/internal/ne..</text>
</g>
<g>
<title>jdk/internal/net/http/SocketTube.resumeEvent (20,076 samples, 10.49%)</title><rect x="427.6" y="355.0" width="123.8" height="15" fill="#56e756" rx="2" ry="2"/>
<text x="430.6" y="366.0">jdk/internal/ne..</text>
</g>
<g>
<title>jdk/internal/net/http/HttpClientImpl.eventUpdated (20,076 samples, 10.49%)</title><rect x="427.6" y="339.0" width="123.8" height="15" fill="#69fa69" rx="2" ry="2"/>
<text x="430.6" y="350.0">jdk/internal/ne..</text>
</g>
<g>
<title>jdk/internal/net/http/HttpClientImpl$SelectorManager.eventUpdated (20,076 samples, 10.49%)</title><rect x="427.6" y="323.0" width="123.8" height="15" fill="#65f665" rx="2" ry="2"/>
<text x="430.6" y="334.0">jdk/internal/ne..</text>
</g>
<g>
<title>jdk/internal/net/http/HttpClientImpl$SelectorManager.register (20,076 samples, 10.49%)</title><rect x="427.6" y="307.0" width="123.8" height="15" fill="#68f968" rx="2" ry="2"/>
<text x="430.6" y="318.0">jdk/internal/ne..</text>
</g>
<g>
<title>jdk.internal.net.http.HttpClientImpl$SelectorManager (19,442 samples, 10.16%)</title><rect x="427.6" y="291.0" width="119.9" height="15" fill="#52c0c0" rx="2" ry="2"/>
<text x="430.6" y="302.0">jdk.internal.ne..</text>
</g>
<g>
<title>sun/nio/ch/KQueueSelectorImpl.wakeup (634 samples, 0.33%)</title><rect x="547.5" y="291.0" width="3.9" height="15" fill="#52e352" rx="2" ry="2"/>
<text x="550.5" y="302.0"></text>
</g>
<g>
<title>java.lang.Object (634 samples, 0.33%)</title><rect x="547.5" y="275.0" width="3.9" height="15" fill="#66d4d4" rx="2" ry="2"/>
<text x="550.5" y="286.0"></text>
</g>
<g>
<title>jdk/internal/net/http/Http1Response$HeadersReader.tryAsyncReceive (3,873 samples, 2.02%)</title><rect x="551.4" y="435.0" width="23.9" height="15" fill="#62f362" rx="2" ry="2"/>
<text x="554.4" y="446.0">j..</text>
</g>
<g>
<title>jdk/internal/net/http/Http1Response$Receiver.accept (3,873 samples, 2.02%)</title><rect x="551.4" y="419.0" width="23.9" height="15" fill="#56e756" rx="2" ry="2"/>
<text x="554.4" y="430.0">j..</text>
</g>
<g>
<title>jdk/internal/net/http/Http1Response$HeadersReader.handle (3,873 samples, 2.02%)</title><rect x="551.4" y="403.0" width="23.9" height="15" fill="#56e756" rx="2" ry="2"/>
<text x="554.4" y="414.0">j..</text>
</g>
<g>
<title>jdk/internal/net/http/Http1Response$HeadersReader.handle (3,873 samples, 2.02%)</title><rect x="551.4" y="387.0" width="23.9" height="15" fill="#52e352" rx="2" ry="2"/>
<text x="554.4" y="398.0">j..</text>
</g>
<g>
<title>java/util/concurrent/CompletableFuture.complete (3,873 samples, 2.02%)</title><rect x="551.4" y="371.0" width="23.9" height="15" fill="#5bec5b" rx="2" ry="2"/>
<text x="554.4" y="382.0">j..</text>
</g>
<g>
<title>java/util/concurrent/CompletableFuture.postComplete (3,873 samples, 2.02%)</title><rect x="551.4" y="355.0" width="23.9" height="15" fill="#6cfd6c" rx="2" ry="2"/>
<text x="554.4" y="366.0">j..</text>
</g>
<g>
<title>java/util/concurrent/CompletableFuture$UniApply.tryFire (3,873 samples, 2.02%)</title><rect x="551.4" y="339.0" width="23.9" height="15" fill="#6cfd6c" rx="2" ry="2"/>
<text x="554.4" y="350.0">j..</text>
</g>
<g>
<title>java/util/concurrent/CompletableFuture$UniCompletion.claim (3,873 samples, 2.02%)</title><rect x="551.4" y="323.0" width="23.9" height="15" fill="#5bec5b" rx="2" ry="2"/>
<text x="554.4" y="334.0">j..</text>
</g>
<g>
<title>jdk/internal/net/http/HttpClientImpl$DelegatingExecutor.execute (3,873 samples, 2.02%)</title><rect x="551.4" y="307.0" width="23.9" height="15" fill="#58e958" rx="2" ry="2"/>
<text x="554.4" y="318.0">j..</text>
</g>
<g>
<title>java/util/concurrent/CompletableFuture$Completion.run (3,873 samples, 2.02%)</title><rect x="551.4" y="291.0" width="23.9" height="15" fill="#64f564" rx="2" ry="2"/>
<text x="554.4" y="302.0">j..</text>
</g>
<g>
<title>java/util/concurrent/CompletableFuture$UniApply.tryFire (3,873 samples, 2.02%)</title><rect x="551.4" y="275.0" width="23.9" height="15" fill="#58e958" rx="2" ry="2"/>
<text x="554.4" y="286.0">j..</text>
</g>
<g>
<title>java/util/concurrent/CompletableFuture.postFire (3,873 samples, 2.02%)</title><rect x="551.4" y="259.0" width="23.9" height="15" fill="#67f867" rx="2" ry="2"/>
<text x="554.4" y="270.0">j..</text>
</g>
<g>
<title>java/util/concurrent/CompletableFuture.postComplete (3,873 samples, 2.02%)</title><rect x="551.4" y="243.0" width="23.9" height="15" fill="#67f867" rx="2" ry="2"/>
<text x="554.4" y="254.0">j..</text>
</g>
<g>
<title>java/util/concurrent/CompletableFuture$UniCompose.tryFire (1,212 samples, 0.63%)</title><rect x="551.4" y="227.0" width="7.5" height="15" fill="#5ced5c" rx="2" ry="2"/>
<text x="554.4" y="238.0"></text>
</g>
<g>
<title>jdk/internal/net/http/MultiExchange$$Lambda$324/998783540.apply (1,212 samples, 0.63%)</title><rect x="551.4" y="211.0" width="7.5" height="15" fill="#58e958" rx="2" ry="2"/>
<text x="554.4" y="222.0"></text>
</g>
<g>
<title>jdk/internal/net/http/MultiExchange.lambda$responseAsyncImpl$5 (1,212 samples, 0.63%)</title><rect x="551.4" y="195.0" width="7.5" height="15" fill="#55e655" rx="2" ry="2"/>
<text x="554.4" y="206.0"></text>
</g>
<g>
<title>jdk/internal/net/http/MultiExchange.responseFilters (1,212 samples, 0.63%)</title><rect x="551.4" y="179.0" width="7.5" height="15" fill="#50e150" rx="2" ry="2"/>
<text x="554.4" y="190.0"></text>
</g>
<g>
<title>jdk/internal/net/http/AuthenticationFilter.response (1,212 samples, 0.63%)</title><rect x="551.4" y="163.0" width="7.5" height="15" fill="#55e655" rx="2" ry="2"/>
<text x="554.4" y="174.0"></text>
</g>
<g>
<title>jdk/internal/net/http/AuthenticationFilter.getCache (1,212 samples, 0.63%)</title><rect x="551.4" y="147.0" width="7.5" height="15" fill="#6dfe6d" rx="2" ry="2"/>
<text x="554.4" y="158.0"></text>
</g>
<g>
<title>java.lang.Class (1,212 samples, 0.63%)</title><rect x="551.4" y="131.0" width="7.5" height="15" fill="#57c5c5" rx="2" ry="2"/>
<text x="554.4" y="142.0"></text>
</g>
<g>
<title>java/util/concurrent/CompletableFuture$UniHandle.tryFire (2,661 samples, 1.39%)</title><rect x="558.9" y="227.0" width="16.4" height="15" fill="#68f968" rx="2" ry="2"/>
<text x="561.9" y="238.0"></text>
</g>
<g>
<title>java/util/concurrent/CompletableFuture.uniHandle (2,661 samples, 1.39%)</title><rect x="558.9" y="211.0" width="16.4" height="15" fill="#54e554" rx="2" ry="2"/>
<text x="561.9" y="222.0"></text>
</g>
<g>
<title>jdk/internal/net/http/MultiExchange$$Lambda$325/1260223987.apply (2,661 samples, 1.39%)</title><rect x="558.9" y="195.0" width="16.4" height="15" fill="#5bec5b" rx="2" ry="2"/>
<text x="561.9" y="206.0"></text>
</g>
<g>
<title>jdk/internal/net/http/MultiExchange.lambda$responseAsyncImpl$6 (2,661 samples, 1.39%)</title><rect x="558.9" y="179.0" width="16.4" height="15" fill="#62f362" rx="2" ry="2"/>
<text x="561.9" y="190.0"></text>
</g>
<g>
<title>jdk/internal/net/http/MultiExchange.cancelTimer (2,661 samples, 1.39%)</title><rect x="558.9" y="163.0" width="16.4" height="15" fill="#55e655" rx="2" ry="2"/>
<text x="561.9" y="174.0"></text>
</g>
<g>
<title>jdk/internal/net/http/HttpClientImpl.cancelTimer (2,661 samples, 1.39%)</title><rect x="558.9" y="147.0" width="16.4" height="15" fill="#68f968" rx="2" ry="2"/>
<text x="561.9" y="158.0"></text>
</g>
<g>
<title>jdk.internal.net.http.HttpClientImpl (2,661 samples, 1.39%)</title><rect x="558.9" y="131.0" width="16.4" height="15" fill="#54c2c2" rx="2" ry="2"/>
<text x="561.9" y="142.0"></text>
</g>
<g>
<title>jdk/internal/net/http/common/SequentialScheduler$TryEndDeferredCompleter.complete (65,414 samples, 34.18%)</title><rect x="575.3" y="483.0" width="403.3" height="15" fill="#6dfe6d" rx="2" ry="2"/>
<text x="578.3" y="494.0">jdk/internal/net/http/common/SequentialScheduler$TryEnd..</text>
</g>
<g>
<title>jdk/internal/net/http/common/SequentialScheduler$CompleteRestartableTask.run (65,414 samples, 34.18%)</title><rect x="575.3" y="467.0" width="403.3" height="15" fill="#57e857" rx="2" ry="2"/>
<text x="578.3" y="478.0">jdk/internal/net/http/common/SequentialScheduler$Comple..</text>
</g>
<g>
<title>jdk/internal/net/http/common/SequentialScheduler$SynchronizedRestartableTask.run (65,414 samples, 34.18%)</title><rect x="575.3" y="451.0" width="403.3" height="15" fill="#57e857" rx="2" ry="2"/>
<text x="578.3" y="462.0">jdk/internal/net/http/common/SequentialScheduler$Synchr..</text>
</g>
<g>
<title>jdk/internal/net/http/Http1AsyncReceiver$$Lambda$258/1895794914.run (65,414 samples, 34.18%)</title><rect x="575.3" y="435.0" width="403.3" height="15" fill="#53e453" rx="2" ry="2"/>
<text x="578.3" y="446.0">jdk/internal/net/http/Http1AsyncReceiver$$Lambda$258/18..</text>
</g>
<g>
<title>jdk/internal/net/http/Http1AsyncReceiver.flush (65,414 samples, 34.18%)</title><rect x="575.3" y="419.0" width="403.3" height="15" fill="#56e756" rx="2" ry="2"/>
<text x="578.3" y="430.0">jdk/internal/net/http/Http1AsyncReceiver.flush</text>
</g>
<g>
<title>jdk/internal/net/http/Http1Response$BodyReader.tryAsyncReceive (65,380 samples, 34.16%)</title><rect x="575.3" y="403.0" width="403.2" height="15" fill="#63f463" rx="2" ry="2"/>
<text x="578.3" y="414.0">jdk/internal/net/http/Http1Response$BodyReader.tryAsync..</text>
</g>
<g>
<title>jdk/internal/net/http/Http1Response$Receiver.accept (65,380 samples, 34.16%)</title><rect x="575.3" y="387.0" width="403.2" height="15" fill="#64f564" rx="2" ry="2"/>
<text x="578.3" y="398.0">jdk/internal/net/http/Http1Response$Receiver.accept</text>
</g>
<g>
<title>jdk/internal/net/http/Http1Response$BodyReader.handle (65,380 samples, 34.16%)</title><rect x="575.3" y="371.0" width="403.2" height="15" fill="#67f867" rx="2" ry="2"/>
<text x="578.3" y="382.0">jdk/internal/net/http/Http1Response$BodyReader.handle</text>
</g>
<g>
<title>jdk/internal/net/http/Http1Response$BodyReader.handle (65,380 samples, 34.16%)</title><rect x="575.3" y="355.0" width="403.2" height="15" fill="#64f564" rx="2" ry="2"/>
<text x="578.3" y="366.0">jdk/internal/net/http/Http1Response$BodyReader.handle</text>
</g>
<g>
<title>jdk/internal/net/http/ResponseContent$FixedLengthBodyParser.accept (65,380 samples, 34.16%)</title><rect x="575.3" y="339.0" width="403.2" height="15" fill="#66f766" rx="2" ry="2"/>
<text x="578.3" y="350.0">jdk/internal/net/http/ResponseContent$FixedLengthBodyPa..</text>
</g>
<g>
<title>jdk/internal/net/http/ResponseContent$FixedLengthBodyParser.accept (65,380 samples, 34.16%)</title><rect x="575.3" y="323.0" width="403.2" height="15" fill="#64f564" rx="2" ry="2"/>
<text x="578.3" y="334.0">jdk/internal/net/http/ResponseContent$FixedLengthBodyPa..</text>
</g>
<g>
<title>jdk/internal/net/http/Http1Response$$Lambda$381/2138772026.run (65,380 samples, 34.16%)</title><rect x="575.3" y="307.0" width="403.2" height="15" fill="#63f463" rx="2" ry="2"/>
<text x="578.3" y="318.0">jdk/internal/net/http/Http1Response$$Lambda$381/2138772..</text>
</g>
<g>
<title>jdk/internal/net/http/Http1Response.onFinished (65,380 samples, 34.16%)</title><rect x="575.3" y="291.0" width="403.2" height="15" fill="#51e251" rx="2" ry="2"/>
<text x="578.3" y="302.0">jdk/internal/net/http/Http1Response.onFinished</text>
</g>
<g>
<title>jdk/internal/net/http/HttpConnection.closeOrReturnToCache (65,380 samples, 34.16%)</title><rect x="575.3" y="275.0" width="403.2" height="15" fill="#61f261" rx="2" ry="2"/>
<text x="578.3" y="286.0">jdk/internal/net/http/HttpConnection.closeOrReturnToCache</text>
</g>
<g>
<title>jdk/internal/net/http/ConnectionPool.returnToPool (65,380 samples, 34.16%)</title><rect x="575.3" y="259.0" width="403.2" height="15" fill="#56e756" rx="2" ry="2"/>
<text x="578.3" y="270.0">jdk/internal/net/http/ConnectionPool.returnToPool</text>
</g>
<g>
<title>jdk/internal/net/http/ConnectionPool.returnToPool (65,380 samples, 34.16%)</title><rect x="575.3" y="243.0" width="403.2" height="15" fill="#59ea59" rx="2" ry="2"/>
<text x="578.3" y="254.0">jdk/internal/net/http/ConnectionPool.returnToPool</text>
</g>
<g>
<title>jdk.internal.net.http.ConnectionPool (17,862 samples, 9.33%)</title><rect x="575.3" y="227.0" width="110.2" height="15" fill="#64d2d2" rx="2" ry="2"/>
<text x="578.3" y="238.0">jdk.internal...</text>
</g>
<g>
<title>jdk/internal/net/http/ConnectionPool.registerCleanupTrigger (47,518 samples, 24.83%)</title><rect x="685.5" y="227.0" width="293.0" height="15" fill="#53e453" rx="2" ry="2"/>
<text x="688.5" y="238.0">jdk/internal/net/http/ConnectionPool.re..</text>
</g>
<g>
<title>jdk/internal/net/http/SocketTube.connectFlows (47,518 samples, 24.83%)</title><rect x="685.5" y="211.0" width="293.0" height="15" fill="#66f766" rx="2" ry="2"/>
<text x="688.5" y="222.0">jdk/internal/net/http/SocketTube.connec..</text>
</g>
<g>
<title>jdk/internal/net/http/ConnectionPool$CleanupTrigger.subscribe (6,812 samples, 3.56%)</title><rect x="685.5" y="195.0" width="42.0" height="15" fill="#5ff05f" rx="2" ry="2"/>
<text x="688.5" y="206.0">jdk/..</text>
</g>
<g>
<title>jdk/internal/net/http/SocketTube.onSubscribe (6,812 samples, 3.56%)</title><rect x="685.5" y="179.0" width="42.0" height="15" fill="#60f160" rx="2" ry="2"/>
<text x="688.5" y="190.0">jdk/..</text>
</g>
<g>
<title>jdk/internal/net/http/SocketTube$InternalWriteSubscriber.onSubscribe (6,812 samples, 3.56%)</title><rect x="685.5" y="163.0" width="42.0" height="15" fill="#61f261" rx="2" ry="2"/>
<text x="688.5" y="174.0">jdk/..</text>
</g>
<g>
<title>jdk/internal/net/http/HttpClientImpl.registerEvent (6,812 samples, 3.56%)</title><rect x="685.5" y="147.0" width="42.0" height="15" fill="#59ea59" rx="2" ry="2"/>
<text x="688.5" y="158.0">jdk/..</text>
</g>
<g>
<title>jdk/internal/net/http/HttpClientImpl$SelectorManager.register (6,812 samples, 3.56%)</title><rect x="685.5" y="131.0" width="42.0" height="15" fill="#65f665" rx="2" ry="2"/>
<text x="688.5" y="142.0">jdk/..</text>
</g>
<g>
<title>jdk.internal.net.http.HttpClientImpl$SelectorManager (6,411 samples, 3.35%)</title><rect x="685.5" y="115.0" width="39.5" height="15" fill="#54c2c2" rx="2" ry="2"/>
<text x="688.5" y="126.0">jdk..</text>
</g>
<g>
<title>sun/nio/ch/KQueueSelectorImpl.wakeup (401 samples, 0.21%)</title><rect x="725.0" y="115.0" width="2.5" height="15" fill="#54e554" rx="2" ry="2"/>
<text x="728.0" y="126.0"></text>
</g>
<g>
<title>java.lang.Object (401 samples, 0.21%)</title><rect x="725.0" y="99.0" width="2.5" height="15" fill="#5ecccc" rx="2" ry="2"/>
<text x="728.0" y="110.0"></text>
</g>
<g>
<title>jdk/internal/net/http/SocketTube.subscribe (40,706 samples, 21.27%)</title><rect x="727.5" y="195.0" width="251.0" height="15" fill="#69fa69" rx="2" ry="2"/>
<text x="730.5" y="206.0">jdk/internal/net/http/SocketTube...</text>
</g>
<g>
<title>jdk/internal/net/http/SocketTube$InternalReadPublisher.subscribe (40,706 samples, 21.27%)</title><rect x="727.5" y="179.0" width="251.0" height="15" fill="#68f968" rx="2" ry="2"/>
<text x="730.5" y="190.0">jdk/internal/net/http/SocketTube$..</text>
</g>
<g>
<title>jdk/internal/net/http/SocketTube$InternalReadPublisher$InternalReadSubscription.signalSubscribe (40,706 samples, 21.27%)</title><rect x="727.5" y="163.0" width="251.0" height="15" fill="#60f160" rx="2" ry="2"/>
<text x="730.5" y="174.0">jdk/internal/net/http/SocketTube$..</text>
</g>
<g>
<title>jdk/internal/net/http/HttpClientImpl.registerEvent (40,706 samples, 21.27%)</title><rect x="727.5" y="147.0" width="251.0" height="15" fill="#66f766" rx="2" ry="2"/>
<text x="730.5" y="158.0">jdk/internal/net/http/HttpClientI..</text>
</g>
<g>
<title>jdk/internal/net/http/HttpClientImpl$SelectorManager.register (40,706 samples, 21.27%)</title><rect x="727.5" y="131.0" width="251.0" height="15" fill="#59ea59" rx="2" ry="2"/>
<text x="730.5" y="142.0">jdk/internal/net/http/HttpClientI..</text>
</g>
<g>
<title>jdk.internal.net.http.HttpClientImpl$SelectorManager (40,121 samples, 20.96%)</title><rect x="727.5" y="115.0" width="247.4" height="15" fill="#54c2c2" rx="2" ry="2"/>
<text x="730.5" y="126.0">jdk.internal.net.http.HttpClientI..</text>
</g>
<g>
<title>sun/nio/ch/KQueueSelectorImpl.wakeup (585 samples, 0.31%)</title><rect x="974.9" y="115.0" width="3.6" height="15" fill="#5ff05f" rx="2" ry="2"/>
<text x="977.9" y="126.0"></text>
</g>
<g>
<title>java.lang.Object (585 samples, 0.31%)</title><rect x="974.9" y="99.0" width="3.6" height="15" fill="#59c7c7" rx="2" ry="2"/>
<text x="977.9" y="110.0"></text>
</g>
<g>
<title>ru/mail/polis/service/pranova/Replica$$Lambda$364/1362809788.run (3,845 samples, 2.01%)</title><rect x="978.6" y="515.0" width="23.7" height="15" fill="#61f261" rx="2" ry="2"/>
<text x="981.6" y="526.0">r..</text>
</g>
<g>
<title>ru/mail/polis/service/pranova/Replica.lambda$asyncAct$5 (3,845 samples, 2.01%)</title><rect x="978.6" y="499.0" width="23.7" height="15" fill="#5ff05f" rx="2" ry="2"/>
<text x="981.6" y="510.0">r..</text>
</g>
<g>
<title>one/nio/http/HttpSession.sendResponse (3,845 samples, 2.01%)</title><rect x="978.6" y="483.0" width="23.7" height="15" fill="#5ced5c" rx="2" ry="2"/>
<text x="981.6" y="494.0">o..</text>
</g>
<g>
<title>ru.mail.polis.service.pranova.StorageSession (3,845 samples, 2.01%)</title><rect x="978.6" y="467.0" width="23.7" height="15" fill="#57c5c5" rx="2" ry="2"/>
<text x="981.6" y="478.0">r..</text>
</g>
<g>
<title>jdk/internal/net/http/HttpClientImpl$SelectorManager.run (30,440 samples, 15.91%)</title><rect x="1002.3" y="563.0" width="187.7" height="15" fill="#5bec5b" rx="2" ry="2"/>
<text x="1005.3" y="574.0">jdk/internal/net/http/Ht..</text>
</g>
<g>
<title>jdk.internal.net.http.HttpClientImpl$SelectorManager (20,162 samples, 10.54%)</title><rect x="1002.3" y="547.0" width="124.3" height="15" fill="#5bc9c9" rx="2" ry="2"/>
<text x="1005.3" y="558.0">jdk.internal.ne..</text>
</g>
<g>
<title>jdk/internal/net/http/ConnectionPool.purgeExpiredConnectionsAndReturnNextDeadline (2,486 samples, 1.30%)</title><rect x="1126.6" y="547.0" width="15.4" height="15" fill="#5dee5d" rx="2" ry="2"/>
<text x="1129.6" y="558.0"></text>
</g>
<g>
<title>jdk/internal/net/http/ConnectionPool.purgeExpiredConnectionsAndReturnNextDeadline (2,486 samples, 1.30%)</title><rect x="1126.6" y="531.0" width="15.4" height="15" fill="#5eef5e" rx="2" ry="2"/>
<text x="1129.6" y="542.0"></text>
</g>
<g>
<title>jdk.internal.net.http.ConnectionPool (2,486 samples, 1.30%)</title><rect x="1126.6" y="515.0" width="15.4" height="15" fill="#5bc9c9" rx="2" ry="2"/>
<text x="1129.6" y="526.0"></text>
</g>
<g>
<title>jdk/internal/net/http/HttpClientImpl.purgeTimeoutsAndReturnNextDeadline (6,717 samples, 3.51%)</title><rect x="1142.0" y="547.0" width="41.4" height="15" fill="#58e958" rx="2" ry="2"/>
<text x="1145.0" y="558.0">jdk..</text>
</g>
<g>
<title>jdk.internal.net.http.HttpClientImpl (6,717 samples, 3.51%)</title><rect x="1142.0" y="531.0" width="41.4" height="15" fill="#52c0c0" rx="2" ry="2"/>
<text x="1145.0" y="542.0">jdk..</text>
</g>
<g>
<title>sun/nio/ch/SelectorImpl.select (994 samples, 0.52%)</title><rect x="1183.4" y="547.0" width="6.1" height="15" fill="#5bec5b" rx="2" ry="2"/>
<text x="1186.4" y="558.0"></text>
</g>
<g>
<title>sun/nio/ch/SelectorImpl.lockAndDoSelect (994 samples, 0.52%)</title><rect x="1183.4" y="531.0" width="6.1" height="15" fill="#57e857" rx="2" ry="2"/>
<text x="1186.4" y="542.0"></text>
</g>
<g>
<title>sun/nio/ch/KQueueSelectorImpl.doSelect (994 samples, 0.52%)</title><rect x="1183.4" y="515.0" width="6.1" height="15" fill="#64f564" rx="2" ry="2"/>
<text x="1186.4" y="526.0"></text>
</g>
<g>
<title>sun/nio/ch/KQueueSelectorImpl.processEvents (994 samples, 0.52%)</title><rect x="1183.4" y="499.0" width="6.1" height="15" fill="#64f564" rx="2" ry="2"/>
<text x="1186.4" y="510.0"></text>
</g>
<g>
<title>sun/nio/ch/KQueueSelectorImpl.clearInterrupt (994 samples, 0.52%)</title><rect x="1183.4" y="483.0" width="6.1" height="15" fill="#5ff05f" rx="2" ry="2"/>
<text x="1186.4" y="494.0"></text>
</g>
<g>
<title>java.lang.Object (994 samples, 0.52%)</title><rect x="1183.4" y="467.0" width="6.1" height="15" fill="#65d3d3" rx="2" ry="2"/>
<text x="1186.4" y="478.0"></text>
</g>
<g>
<title>sun/nio/ch/SelectorImpl.selectNow (81 samples, 0.04%)</title><rect x="1189.5" y="547.0" width="0.5" height="15" fill="#65f665" rx="2" ry="2"/>
<text x="1192.5" y="558.0"></text>
</g>
<g>
<title>sun/nio/ch/SelectorImpl.lockAndDoSelect (81 samples, 0.04%)</title><rect x="1189.5" y="531.0" width="0.5" height="15" fill="#6cfd6c" rx="2" ry="2"/>
<text x="1192.5" y="542.0"></text>
</g>
<g>
<title>sun/nio/ch/KQueueSelectorImpl.doSelect (81 samples, 0.04%)</title><rect x="1189.5" y="515.0" width="0.5" height="15" fill="#5dee5d" rx="2" ry="2"/>
<text x="1192.5" y="526.0"></text>
</g>
<g>
<title>sun/nio/ch/KQueueSelectorImpl.processEvents (81 samples, 0.04%)</title><rect x="1189.5" y="499.0" width="0.5" height="15" fill="#6cfd6c" rx="2" ry="2"/>
<text x="1192.5" y="510.0"></text>
</g>
<g>
<title>sun/nio/ch/KQueueSelectorImpl.clearInterrupt (81 samples, 0.04%)</title><rect x="1189.5" y="483.0" width="0.5" height="15" fill="#59ea59" rx="2" ry="2"/>
<text x="1192.5" y="494.0"></text>
</g>
<g>
<title>java.lang.Object (81 samples, 0.04%)</title><rect x="1189.5" y="467.0" width="0.5" height="15" fill="#5dcbcb" rx="2" ry="2"/>
<text x="1192.5" y="478.0"></text>
</g>
</g>
</svg>
